<svg width="195" height="41" viewBox="0 0 195 41" fill="none" xmlns="http://www.w3.org/2000/svg">
<g opacity="0.5">
<path d="M23.5 31.5L14 12.5H33L23.5 31.5Z" fill="#FFC600"/>
<path d="M23.5 31.5L14 12.5H33L23.5 31.5Z" fill="#FFC600"/>
</g>
<g opacity="0.5">
<path d="M23.5 23.5L16 9.5H31L23.5 23.5Z" fill="#FFC600"/>
<path d="M23.5 23.5L16 9.5H31L23.5 23.5Z" fill="#FFC600"/>
</g>
<path d="M23.5 23.5L18 12.5H29L23.5 23.5Z" fill="#FFC600"/>
<path d="M23.5 23.5L18 12.5H29L23.5 23.5Z" fill="#FFC600"/>
<path d="M54.197 9.81101V29H50.5866V9.81101H54.197ZM63.3917 29.2499C62.3423 29.2499 61.4012 29.0833 60.5684 28.7501C59.7355 28.4087 59.0276 27.9381 58.4446 27.3385C57.8699 26.7388 57.4285 26.0434 57.1203 25.2521C56.8122 24.4526 56.6581 23.6031 56.6581 22.7036V22.2039C56.6581 21.1795 56.8039 20.2425 57.0954 19.393C57.3869 18.5435 57.8033 17.8064 58.3446 17.1818C58.8943 16.5571 59.5606 16.0782 60.3435 15.7451C61.1264 15.4036 62.0092 15.2329 62.992 15.2329C63.9498 15.2329 64.7993 15.3911 65.5405 15.7076C66.2818 16.0241 66.9022 16.4739 67.4019 17.0569C67.91 17.6398 68.2931 18.3394 68.5513 19.1556C68.8095 19.9635 68.9386 20.863 68.9386 21.8541V23.3532H58.1947V20.9546H65.4031V20.6798C65.4031 20.1801 65.3115 19.7345 65.1282 19.343C64.9533 18.9433 64.6868 18.6268 64.3287 18.3936C63.9706 18.1604 63.5125 18.0438 62.9545 18.0438C62.4798 18.0438 62.0717 18.1479 61.7302 18.3561C61.3887 18.5643 61.1097 18.8558 60.8932 19.2306C60.685 19.6054 60.5267 20.0468 60.4185 20.5548C60.3185 21.0546 60.2685 21.6042 60.2685 22.2039V22.7036C60.2685 23.245 60.3435 23.7447 60.4934 24.2028C60.6517 24.6608 60.8724 25.0564 61.1555 25.3896C61.447 25.7227 61.7968 25.9809 62.2049 26.1641C62.6214 26.3474 63.0919 26.439 63.6166 26.439C64.2662 26.439 64.8701 26.314 65.4281 26.0642C65.9944 25.806 66.4816 25.4187 66.8897 24.9024L68.6387 26.8013C68.3556 27.2094 67.9683 27.6008 67.4769 27.9756C66.9938 28.3504 66.4108 28.6585 65.7279 28.9001C65.045 29.1333 64.2662 29.2499 63.3917 29.2499ZM75.4099 26.3765L78.4081 15.4828H82.1685L77.6086 29H75.3349L75.4099 26.3765ZM73.3485 15.4828L76.3593 26.389L76.4218 29H74.1356L69.5757 15.4828H73.3485ZM88.3774 26.3765L91.3757 15.4828H95.136L90.5762 29H88.3025L88.3774 26.3765ZM86.3161 15.4828L89.3269 26.389L89.3893 29H87.1031L82.5433 15.4828H86.3161ZM103.844 25.9517V19.9302C103.844 19.4971 103.773 19.1265 103.631 18.8183C103.49 18.5019 103.269 18.2562 102.969 18.0813C102.678 17.9064 102.299 17.8189 101.832 17.8189C101.432 17.8189 101.087 17.8897 100.795 18.0313C100.504 18.1645 100.279 18.3603 100.121 18.6185C99.9624 18.8683 99.8833 19.164 99.8833 19.5054H96.2854C96.2854 18.9308 96.4186 18.3853 96.6852 17.8689C96.9517 17.3525 97.3389 16.8986 97.847 16.5072C98.355 16.1074 98.9588 15.7951 99.6584 15.5702C100.366 15.3453 101.158 15.2329 102.032 15.2329C103.081 15.2329 104.014 15.4078 104.83 15.7576C105.647 16.1074 106.288 16.6321 106.754 17.3317C107.229 18.0313 107.466 18.9058 107.466 19.9552V25.7394C107.466 26.4806 107.512 27.0886 107.604 27.5633C107.696 28.0297 107.829 28.4378 108.004 28.7876V29H104.368C104.193 28.6335 104.06 28.1755 103.968 27.6258C103.885 27.0678 103.844 26.5098 103.844 25.9517ZM104.318 20.7672L104.343 22.8036H102.332C101.857 22.8036 101.445 22.8577 101.095 22.966C100.745 23.0742 100.458 23.2283 100.233 23.4282C100.008 23.6198 99.8417 23.8446 99.7334 24.1028C99.6335 24.361 99.5835 24.6442 99.5835 24.9523C99.5835 25.2605 99.6543 25.5395 99.7959 25.7893C99.9375 26.0309 100.142 26.2224 100.408 26.364C100.675 26.4973 100.987 26.5639 101.345 26.5639C101.886 26.5639 102.357 26.4556 102.757 26.2391C103.156 26.0225 103.465 25.756 103.681 25.4395C103.906 25.1231 104.023 24.8232 104.031 24.5401L104.98 26.0642C104.847 26.4057 104.664 26.7596 104.431 27.1261C104.206 27.4925 103.919 27.8382 103.569 28.163C103.219 28.4795 102.798 28.7418 102.307 28.95C101.816 29.1499 101.233 29.2499 100.558 29.2499C99.7001 29.2499 98.9214 29.0791 98.2218 28.7377C97.5305 28.3879 96.9808 27.909 96.5727 27.301C96.1729 26.6847 95.9731 25.9851 95.9731 25.2022C95.9731 24.4943 96.1063 23.8654 96.3728 23.3158C96.6393 22.7661 97.0308 22.3038 97.5472 21.9291C98.0719 21.5459 98.7256 21.2586 99.5085 21.0671C100.291 20.8672 101.199 20.7672 102.232 20.7672H104.318ZM127.38 22.966H131.115C131.04 24.1903 130.703 25.2771 130.103 26.2266C129.512 27.176 128.683 27.9173 127.617 28.4503C126.56 28.9833 125.285 29.2499 123.795 29.2499C122.629 29.2499 121.583 29.05 120.659 28.6502C119.734 28.2421 118.943 27.6591 118.285 26.9012C117.636 26.1433 117.14 25.2272 116.799 24.1528C116.457 23.0784 116.286 21.8749 116.286 20.5424V19.2806C116.286 17.948 116.461 16.7445 116.811 15.6701C117.169 14.5874 117.677 13.6671 118.335 12.9092C119.002 12.1513 119.797 11.5683 120.721 11.1602C121.646 10.7521 122.679 10.5481 123.82 10.5481C125.335 10.5481 126.614 10.8229 127.655 11.3726C128.704 11.9223 129.516 12.6802 130.091 13.6463C130.674 14.6124 131.024 15.7118 131.14 16.9444H127.393C127.351 16.2115 127.205 15.591 126.955 15.083C126.705 14.5666 126.326 14.1793 125.818 13.9211C125.319 13.6546 124.652 13.5214 123.82 13.5214C123.195 13.5214 122.649 13.638 122.183 13.8712C121.717 14.1044 121.325 14.4583 121.009 14.9331C120.692 15.4078 120.455 16.0075 120.297 16.732C120.147 17.4483 120.072 18.2895 120.072 19.2556V20.5424C120.072 21.4835 120.143 22.3122 120.284 23.0284C120.426 23.7364 120.642 24.336 120.934 24.8274C121.234 25.3104 121.617 25.6769 122.083 25.9268C122.558 26.1683 123.128 26.2891 123.795 26.2891C124.577 26.2891 125.223 26.1641 125.731 25.9143C126.239 25.6644 126.626 25.2938 126.893 24.8024C127.168 24.311 127.33 23.6989 127.38 22.966ZM132.777 22.3788V22.1164C132.777 21.1253 132.919 20.2134 133.202 19.3805C133.485 18.5393 133.897 17.8106 134.438 17.1943C134.98 16.578 135.646 16.0991 136.437 15.7576C137.229 15.4078 138.136 15.2329 139.161 15.2329C140.185 15.2329 141.097 15.4078 141.897 15.7576C142.696 16.0991 143.367 16.578 143.908 17.1943C144.458 17.8106 144.874 18.5393 145.157 19.3805C145.441 20.2134 145.582 21.1253 145.582 22.1164V22.3788C145.582 23.3616 145.441 24.2735 145.157 25.1147C144.874 25.9476 144.458 26.6763 143.908 27.301C143.367 27.9173 142.7 28.3962 141.909 28.7377C141.118 29.0791 140.21 29.2499 139.186 29.2499C138.161 29.2499 137.249 29.0791 136.45 28.7377C135.659 28.3962 134.988 27.9173 134.438 27.301C133.897 26.6763 133.485 25.9476 133.202 25.1147C132.919 24.2735 132.777 23.3616 132.777 22.3788ZM136.375 22.1164V22.3788C136.375 22.9451 136.425 23.474 136.525 23.9654C136.625 24.4568 136.783 24.8899 137 25.2646C137.224 25.6311 137.516 25.9184 137.874 26.1266C138.232 26.3349 138.669 26.439 139.186 26.439C139.685 26.439 140.114 26.3349 140.473 26.1266C140.831 25.9184 141.118 25.6311 141.335 25.2646C141.551 24.8899 141.709 24.4568 141.809 23.9654C141.918 23.474 141.972 22.9451 141.972 22.3788V22.1164C141.972 21.5668 141.918 21.0504 141.809 20.5673C141.709 20.076 141.547 19.6429 141.322 19.2681C141.106 18.885 140.818 18.5851 140.46 18.3686C140.102 18.1521 139.669 18.0438 139.161 18.0438C138.653 18.0438 138.22 18.1521 137.862 18.3686C137.512 18.5851 137.224 18.885 137 19.2681C136.783 19.6429 136.625 20.076 136.525 20.5673C136.425 21.0504 136.375 21.5668 136.375 22.1164ZM151.591 15.4828V29H147.981V15.4828H151.591ZM147.756 11.9598C147.756 11.4351 147.939 11.002 148.306 10.6605C148.672 10.319 149.163 10.1483 149.78 10.1483C150.388 10.1483 150.875 10.319 151.241 10.6605C151.616 11.002 151.804 11.4351 151.804 11.9598C151.804 12.4845 151.616 12.9176 151.241 13.259C150.875 13.6005 150.388 13.7712 149.78 13.7712C149.163 13.7712 148.672 13.6005 148.306 13.259C147.939 12.9176 147.756 12.4845 147.756 11.9598ZM158.087 18.3686V29H154.489V15.4828H157.863L158.087 18.3686ZM157.563 21.7666H156.588C156.588 20.7672 156.717 19.8677 156.976 19.0682C157.234 18.2603 157.596 17.5732 158.062 17.0069C158.529 16.4322 159.083 15.995 159.724 15.6951C160.374 15.387 161.098 15.2329 161.898 15.2329C162.531 15.2329 163.11 15.3245 163.634 15.5077C164.159 15.691 164.609 15.9825 164.983 16.3822C165.367 16.782 165.658 17.3109 165.858 17.9688C166.066 18.6268 166.17 19.4305 166.17 20.3799V29H162.547V20.3675C162.547 19.7678 162.464 19.3014 162.298 18.9683C162.131 18.6351 161.885 18.4019 161.56 18.2687C161.244 18.1271 160.853 18.0563 160.386 18.0563C159.903 18.0563 159.482 18.1521 159.124 18.3436C158.775 18.5352 158.483 18.8017 158.25 19.1432C158.025 19.4763 157.854 19.8677 157.738 20.3175C157.621 20.7672 157.563 21.2503 157.563 21.7666ZM176.215 25.2646C176.215 25.0065 176.14 24.7733 175.99 24.565C175.84 24.3568 175.561 24.1653 175.153 23.9904C174.753 23.8071 174.174 23.6406 173.416 23.4907C172.733 23.3407 172.096 23.1534 171.505 22.9285C170.922 22.6953 170.414 22.4163 169.981 22.0915C169.556 21.7666 169.223 21.3835 168.981 20.9421C168.74 20.4924 168.619 19.9802 168.619 19.4055C168.619 18.8392 168.74 18.3061 168.981 17.8064C169.231 17.3067 169.585 16.8653 170.043 16.4822C170.509 16.0907 171.076 15.7867 171.742 15.5702C172.417 15.3453 173.175 15.2329 174.016 15.2329C175.19 15.2329 176.198 15.4203 177.039 15.7951C177.889 16.1699 178.538 16.6862 178.988 17.3442C179.446 17.9938 179.675 18.7351 179.675 19.5679H176.077C176.077 19.2181 176.002 18.9058 175.852 18.6309C175.711 18.3478 175.486 18.1271 175.178 17.9688C174.878 17.8023 174.486 17.719 174.003 17.719C173.604 17.719 173.258 17.7898 172.966 17.9313C172.675 18.0646 172.45 18.2478 172.292 18.481C172.142 18.7059 172.067 18.9558 172.067 19.2306C172.067 19.4388 172.109 19.6262 172.192 19.7928C172.283 19.951 172.429 20.0968 172.629 20.23C172.829 20.3633 173.087 20.4882 173.404 20.6048C173.728 20.7131 174.128 20.813 174.603 20.9046C175.577 21.1045 176.448 21.3669 177.214 21.6917C177.98 22.0082 178.588 22.4413 179.038 22.9909C179.488 23.5323 179.713 24.2444 179.713 25.1272C179.713 25.7269 179.579 26.2766 179.313 26.7763C179.046 27.276 178.663 27.7132 178.163 28.088C177.664 28.4545 177.064 28.7418 176.364 28.95C175.673 29.1499 174.894 29.2499 174.028 29.2499C172.771 29.2499 171.705 29.025 170.83 28.5752C169.964 28.1255 169.306 27.555 168.856 26.8637C168.415 26.1641 168.194 25.4479 168.194 24.715H171.605C171.621 25.2063 171.746 25.6019 171.979 25.9018C172.221 26.2016 172.525 26.4181 172.891 26.5514C173.266 26.6847 173.67 26.7513 174.103 26.7513C174.57 26.7513 174.957 26.6888 175.265 26.5639C175.573 26.4306 175.806 26.2557 175.965 26.0392C176.131 25.8143 176.215 25.5561 176.215 25.2646Z" fill="#E1E1E6"/>
</svg>
